<svg width="614" height="614" viewBox="0 0 614 614" fill="none" xmlns="http://www.w3.org/2000/svg">
<g clip-path="url(#clip0)">
<path d="M307.396 613C476.404 612.781 613.218 475.612 613 306.604C612.781 137.596 475.612 0.781619 306.604 1.00026C137.616 1.21888 0.781502 138.388 1.00015 307.396C1.21879 476.404 138.388 613.218 307.396 613ZM306.654 39.2502C454.528 39.0589 574.558 158.779 574.75 306.654C574.941 454.528 455.221 574.558 307.346 574.75C159.471 574.941 39.4414 455.221 39.2501 307.346C39.0588 159.472 158.779 39.4415 306.654 39.2502ZM220.46 470.363C227.948 477.831 240.054 477.816 247.503 470.328L393.754 323.699C398.338 319.103 399.745 312.828 398.685 306.881C399.729 300.951 398.287 294.661 393.71 290.077L247.081 143.826C239.592 136.377 227.487 136.393 220.038 143.861C212.569 151.349 212.585 163.455 220.073 170.904L356.457 306.936L220.445 443.301C212.976 450.789 212.991 462.895 220.46 470.363Z" fill="black"/>
</g>
<defs>
<clipPath id="clip0">
<rect width="612" height="612" fill="white" transform="translate(613.396 612.604) rotate(179.926)"/>
</clipPath>
</defs>
</svg>
